<?xml version="1.0" encoding="UTF-8"?>
<svg width="200px" height="200px" viewBox="0 0 200 200" version="1.1" xmlns="http://www.w3.org/2000/svg" xmlns:xlink="http://www.w3.org/1999/xlink">
    <!-- Generator: Sketch 49.3 (51167) - http://www.bohemiancoding.com/sketch -->
    <title>Twitter_Social_Icon_Circle_Color</title>
    <desc>Created with Sketch.</desc>
    <defs></defs>
    <g id="Page-1" stroke="none" stroke-width="1" fill="none" fill-rule="evenodd">
        <g id="Create-Page" transform="translate(-271.000000, -1039.000000)" fill="#FFFFFF">
            <g id="Twitter_Social_Icon_Circle_Color" transform="translate(271.000000, 1039.000000)">
                <path d="M99.7506234,200 C44.6598504,200 0,155.2285 0,100 C0,44.7715 44.6598504,0 99.7506234,0 C154.841397,0 199.501247,44.7715 199.501247,100 C199.501247,155.2285 154.841397,200 99.7506234,200 Z M81.6601414,152.941176 C125.572312,152.941176 149.5863,116.088724 149.5863,84.1323756 C149.5863,83.0850376 149.565503,82.0427156 149.517967,81.0059112 C154.179445,77.5925324 158.231375,73.3334583 161.428157,68.4840026 C157.149936,70.4091382 152.546888,71.7062723 147.718045,72.2911363 C152.646416,69.2975956 156.430958,64.5599963 158.21553,58.9135004 C153.602083,61.6833281 148.494462,63.6987515 143.056567,64.7837093 C138.70011,60.0827268 132.4957,57.1428571 125.630246,57.1428571 C112.445008,57.1428571 101.752923,67.9733751 101.752923,81.3249279 C101.752923,83.2229772 101.962873,85.0683587 102.372374,86.8390019 C82.5311356,85.8287822 64.9369538,76.204609 53.1634296,61.5719732 C51.1109731,65.1448604 49.930006,69.2975956 49.930006,73.7267116 C49.930006,82.1174538 54.1448455,89.5240594 60.5537584,93.8573702 C56.6384934,93.7354817 52.9589267,92.6450062 49.7413484,90.8322287 C49.7359016,90.93305 49.7359016,91.034373 49.7359016,91.1402103 C49.7359016,102.854044 57.9665244,112.632208 68.8893561,114.849775 C66.8844354,115.402537 64.7740447,115.700486 62.5958165,115.700486 C61.0578358,115.700486 59.5619441,115.545994 58.1081414,115.264096 C61.1469654,124.872218 69.9599016,131.864503 80.4108416,132.06113 C72.238153,138.548305 61.9451704,142.413624 50.7594064,142.413624 C48.8332168,142.413624 46.9327758,142.301768 45.0645205,142.078556 C55.6303387,148.937416 68.175329,152.941176 81.6601414,152.941176 Z" id="Combined-Shape"></path>
            </g>
        </g>
    </g>
</svg>